<svg width="19" height="20" viewBox="0 0 19 20" fill="none" xmlns="http://www.w3.org/2000/svg">
<path d="M3.00391 6H2.37109V1.92969C2.37109 1.59115 2.38151 1.27083 2.40234 0.96875C2.34766 1.02344 2.28646 1.08073 2.21875 1.14062C2.15104 1.20052 1.84115 1.45443 1.28906 1.90234L0.945312 1.45703L2.45703 0.289062H3.00391V6Z" fill="#4877B5"/>
<path d="M18.3555 6H14.6016V5.44141L16.1055 3.92969C16.5638 3.46615 16.8659 3.13542 17.0117 2.9375C17.1576 2.73958 17.2669 2.54688 17.3398 2.35938C17.4128 2.17188 17.4492 1.97005 17.4492 1.75391C17.4492 1.44922 17.3568 1.20833 17.1719 1.03125C16.987 0.851562 16.7305 0.761719 16.4023 0.761719C16.1654 0.761719 15.9401 0.800781 15.7266 0.878906C15.5156 0.957031 15.2799 1.09896 15.0195 1.30469L14.6758 0.863281C15.2018 0.425781 15.7747 0.207031 16.3945 0.207031C16.931 0.207031 17.3516 0.345052 17.6562 0.621094C17.9609 0.894531 18.1133 1.26302 18.1133 1.72656C18.1133 2.08854 18.0117 2.44661 17.8086 2.80078C17.6055 3.15495 17.2253 3.60286 16.668 4.14453L15.418 5.36719V5.39844H18.3555V6Z" fill="#4877B5"/>
<path d="M4.14062 14.6328C4.14062 14.9974 4.03776 15.2956 3.83203 15.5273C3.62891 15.7591 3.33984 15.9141 2.96484 15.9922V16.0234C3.42318 16.0807 3.76302 16.2266 3.98438 16.4609C4.20573 16.6953 4.31641 17.0026 4.31641 17.3828C4.31641 17.9271 4.1276 18.3464 3.75 18.6406C3.3724 18.9323 2.83594 19.0781 2.14062 19.0781C1.83854 19.0781 1.5612 19.0547 1.30859 19.0078C1.05859 18.9635 0.815104 18.8841 0.578125 18.7695V18.1523C0.825521 18.2747 1.08854 18.3685 1.36719 18.4336C1.64844 18.4961 1.91406 18.5273 2.16406 18.5273C3.15104 18.5273 3.64453 18.1406 3.64453 17.3672C3.64453 16.6745 3.10026 16.3281 2.01172 16.3281H1.44922V15.7695H2.01953C2.46484 15.7695 2.81771 15.6719 3.07812 15.4766C3.33854 15.2786 3.46875 15.0052 3.46875 14.6562C3.46875 14.3776 3.3724 14.1589 3.17969 14C2.98958 13.8411 2.73047 13.7617 2.40234 13.7617C2.15234 13.7617 1.91667 13.7956 1.69531 13.8633C1.47396 13.931 1.22135 14.056 0.9375 14.2383L0.609375 13.8008C0.84375 13.6159 1.11328 13.4714 1.41797 13.3672C1.72526 13.2604 2.04818 13.207 2.38672 13.207C2.94141 13.207 3.3724 13.3346 3.67969 13.5898C3.98698 13.8424 4.14062 14.1901 4.14062 14.6328Z" fill="#4877B5"/>
<path d="M18.625 17.6875H17.7773V19H17.1562V17.6875H14.3789V17.1211L17.0898 13.2578H17.7773V17.0977H18.625V17.6875ZM17.1562 17.0977V15.1992C17.1562 14.8268 17.1693 14.4062 17.1953 13.9375H17.1641C17.0391 14.1875 16.9219 14.3945 16.8125 14.5586L15.0273 17.0977H17.1562Z" fill="#4877B5"/>
<path d="M13.2652 3.26517C13.4116 3.11872 13.4116 2.88128 13.2652 2.73483L10.8787 0.34835C10.7322 0.201903 10.4948 0.201903 10.3483 0.34835C10.2019 0.494796 10.2019 0.732233 10.3483 0.87868L12.4697 3L10.3483 5.12132C10.2019 5.26777 10.2019 5.5052 10.3483 5.65165C10.4948 5.7981 10.7322 5.7981 10.8787 5.65165L13.2652 3.26517ZM5 3.375H13V2.625H5V3.375Z" fill="#4877B5"/>
<path d="M13.2652 16.2652C13.4116 16.1187 13.4116 15.8813 13.2652 15.7348L10.8787 13.3483C10.7322 13.2019 10.4948 13.2019 10.3483 13.3483C10.2019 13.4948 10.2019 13.7322 10.3483 13.8787L12.4697 16L10.3483 18.1213C10.2019 18.2678 10.2019 18.5052 10.3483 18.6517C10.4948 18.7981 10.7322 18.7981 10.8787 18.6517L13.2652 16.2652ZM5 16.375H13V15.625H5V16.375Z" fill="#4877B5"/>
<path d="M5.62775 11.9547C5.60272 12.1603 5.7491 12.3472 5.95469 12.3723L9.30497 12.78C9.51056 12.8051 9.6975 12.6587 9.72253 12.4531C9.74755 12.2475 9.60117 12.0605 9.39558 12.0355L6.41756 11.6731L6.78003 8.69503C6.80505 8.48944 6.65867 8.3025 6.45308 8.27747C6.24749 8.25245 6.06055 8.39883 6.03552 8.60442L5.62775 11.9547ZM12.8293 6.17648L5.76882 11.7047L6.23118 12.2953L13.2917 6.767L12.8293 6.17648Z" fill="#4877B5"/>
</svg>
